<svg width="111" height="40" viewBox="0 0 111 40" fill="none" xmlns="http://www.w3.org/2000/svg">
<g clip-path="url(#clip0_24_3809)">
<path d="M52.3619 27.4064H49.042C48.7816 27.4064 48.5946 27.348 48.4781 27.2295C48.3616 27.1111 48.3041 26.921 48.3041 26.6564V16.4286H45.292C45.0316 16.4286 44.8446 16.3701 44.7281 16.2517C44.6116 16.1333 44.5541 15.9432 44.5541 15.6785V13.1593C44.5541 12.8961 44.6116 12.7045 44.7281 12.5861C44.8446 12.4677 45.0316 12.4092 45.292 12.4092H56.1119C56.3708 12.4092 56.5593 12.4677 56.6758 12.5861C56.7923 12.7045 56.8498 12.8961 56.8498 13.1593V15.68C56.8498 15.9447 56.7909 16.1347 56.6758 16.2532C56.5593 16.3716 56.3723 16.4301 56.1119 16.4301H53.0998V26.6578C53.0998 26.9225 53.0423 27.1125 52.9258 27.231C52.8093 27.348 52.6223 27.4064 52.3619 27.4064Z" fill="white"/>
<path d="M68.5515 27.4064H63.5515C61.8441 27.4064 60.5768 27.0599 59.7497 26.3654C58.9226 25.6709 58.5098 24.602 58.5098 23.1574V16.6801C58.5098 15.2355 58.9226 14.1638 59.7497 13.4619C60.5754 12.7616 61.8426 12.4106 63.5515 12.4106H68.5515C68.8104 12.4106 68.9988 12.4691 69.1153 12.5876C69.2319 12.706 69.2894 12.8975 69.2894 13.1607V15.6815C69.2894 15.9461 69.2319 16.1362 69.1153 16.2546C68.9988 16.3731 68.8118 16.4316 68.5515 16.4316H64.4332C64.0103 16.4316 63.6953 16.5178 63.4911 16.6918C63.2854 16.8658 63.1832 17.1261 63.1832 17.4726V22.4293C63.1832 22.7773 63.2854 23.0302 63.4911 23.1896C63.6953 23.349 64.0103 23.4294 64.4332 23.4294H68.5515C68.8104 23.4294 68.9988 23.4893 69.1153 23.6063C69.2319 23.7248 69.2894 23.9148 69.2894 24.1795V26.6578C69.2894 26.9225 69.2319 27.1125 69.1153 27.231C68.9974 27.348 68.8104 27.4064 68.5515 27.4064Z" fill="white"/>
<path d="M84.0017 23.4704C84.0017 24.1093 83.9097 24.6883 83.7255 25.2089C83.5414 25.7294 83.2135 26.1739 82.7416 26.5423C82.2698 26.9108 81.6211 27.1988 80.7954 27.4065C79.9683 27.6141 78.9197 27.7194 77.6496 27.7194C76.3794 27.7194 75.3265 27.6156 74.4937 27.4065C73.6608 27.1988 73.0078 26.9108 72.5359 26.5423C72.0641 26.1739 71.7362 25.7294 71.5521 25.2089C71.3679 24.6883 71.2759 24.1079 71.2759 23.4704V16.3673C71.2759 15.7283 71.3679 15.1493 71.5521 14.6288C71.7362 14.1082 72.0641 13.6608 72.5359 13.285C73.0078 12.9107 73.6594 12.6183 74.4937 12.4107C75.3265 12.2016 76.3794 12.0978 77.6496 12.0978C78.9197 12.0978 79.9683 12.2016 80.7954 12.4107C81.6211 12.6183 82.2713 12.9107 82.7416 13.285C83.2135 13.6594 83.5414 14.1082 83.7255 14.6288C83.9097 15.1493 84.0017 15.7298 84.0017 16.3673V23.4704ZM75.9278 22.7203C75.9278 22.9981 76.0299 23.2306 76.2356 23.4177C76.4399 23.6049 76.9117 23.6985 77.6496 23.6985C78.3875 23.6985 78.8593 23.6049 79.0636 23.4177C79.2678 23.2306 79.3714 22.9981 79.3714 22.7203V17.1173C79.3714 16.8541 79.2693 16.6275 79.0636 16.4404C78.8593 16.2532 78.3875 16.1596 77.6496 16.1596C76.9117 16.1596 76.4413 16.2532 76.2356 16.4404C76.0299 16.6275 75.9278 16.8541 75.9278 17.1173V22.7203Z" fill="white"/>
<path d="M96.5017 27.4064H86.7477C86.4888 27.4064 86.3003 27.348 86.1838 27.2295C86.0673 27.1111 86.0098 26.921 86.0098 26.6564V23.0741C86.0098 22.2684 86.0889 21.6061 86.2457 21.0856C86.4025 20.565 86.624 20.1381 86.9117 19.8047C87.1979 19.4714 87.5403 19.2082 87.9358 19.0137C88.3314 18.8192 88.7615 18.6526 89.2275 18.5136L91.9735 17.6393C92.1922 17.5837 92.3389 17.5004 92.4137 17.3893C92.4885 17.2781 92.5259 17.1114 92.5259 16.8892C92.5259 16.6816 92.4842 16.5383 92.4036 16.4623C92.3216 16.3862 92.1778 16.3482 91.9735 16.3482H87.5273C87.267 16.3482 87.08 16.2897 86.9634 16.1713C86.8469 16.0529 86.7894 15.8628 86.7894 15.5981V13.1593C86.7894 12.8961 86.8469 12.7045 86.9634 12.5861C87.08 12.4677 87.267 12.4092 87.5273 12.4092H93.5731C94.7339 12.4092 95.6257 12.7045 96.2471 13.2938C96.8685 13.8845 97.1792 14.7413 97.1792 15.8657V17.8235C97.1792 18.8646 96.893 19.6629 96.319 20.2185C95.7451 20.7741 94.9669 21.204 93.983 21.5096L91.1968 22.4059C90.9911 22.4615 90.8515 22.5243 90.7767 22.593C90.7019 22.6632 90.6645 22.808 90.6645 23.0302V23.4674H96.5046C96.7635 23.4674 96.9519 23.5274 97.0685 23.6443C97.185 23.7628 97.2425 23.9528 97.2425 24.2175V26.6549C97.2425 26.9195 97.185 27.1096 97.0685 27.2281C96.9491 27.348 96.7606 27.4064 96.5017 27.4064Z" fill="white"/>
<path d="M100.026 23.4703H105.17C105.498 23.4703 105.709 23.4075 105.806 23.2832C105.9 23.1589 105.949 23.0127 105.949 22.846V22.2831C105.949 22.1164 105.902 21.9746 105.806 21.8561C105.709 21.7377 105.498 21.6792 105.17 21.6792H101.686C101.425 21.6792 101.238 21.6207 101.122 21.5023C101.005 21.3838 100.948 21.1938 100.948 20.9291V18.7008C100.948 18.4376 101.005 18.2461 101.122 18.1276C101.238 18.0092 101.425 17.9507 101.686 17.9507H103.838C104.166 17.9507 104.377 17.8878 104.474 17.7636C104.568 17.6393 104.617 17.4931 104.617 17.3264V17.0135C104.617 16.8468 104.57 16.7006 104.474 16.5763C104.377 16.452 104.166 16.3891 103.838 16.3891H100.026C99.7655 16.3891 99.5785 16.3307 99.462 16.2122C99.3455 16.0938 99.288 15.9037 99.288 15.6391V13.1593C99.288 12.8961 99.3455 12.7045 99.462 12.5861C99.5785 12.4677 99.7655 12.4092 100.026 12.4092H105.744C106.877 12.4092 107.722 12.6768 108.274 13.2104C108.828 13.7456 109.104 14.4708 109.104 15.3876V16.5953C109.104 17.1231 109.015 17.5823 108.838 17.9697C108.661 18.3587 108.346 18.6496 107.896 18.8441C108.865 18.9552 109.538 19.2579 109.914 19.7506C110.289 20.2434 110.478 20.9481 110.478 21.8649V23.9485C110.478 25.0187 110.142 25.8609 109.474 26.4794C108.805 27.0979 107.814 27.4064 106.502 27.4064H100.026C99.7655 27.4064 99.5785 27.348 99.462 27.2295C99.3455 27.1111 99.288 26.921 99.288 26.6564V24.219C99.288 23.9558 99.3455 23.7642 99.462 23.6458C99.5785 23.5288 99.767 23.4703 100.026 23.4703Z" fill="white"/>
<path d="M27.0541 26.9502C27.0541 27.1681 27.0397 27.383 27.011 27.5936C26.7031 29.9564 24.7138 31.7797 22.3044 31.7797C19.6807 31.7797 17.5547 29.6172 17.5547 26.9517H20.7624C20.7624 27.8173 21.4528 28.5162 22.3044 28.5162C23.1545 28.5162 23.8435 27.8158 23.8435 26.9517C23.8435 26.3625 23.5242 25.8507 23.0524 25.5831C23.0466 25.5817 23.0438 25.5773 23.038 25.5758C21.7362 24.8506 20.4733 24.0757 19.2506 23.2539C19.4117 23.1136 19.5843 22.9864 19.7627 22.8708C19.7915 22.8518 19.8188 22.8343 19.8476 22.8153C20.6977 22.2728 21.5161 21.6938 22.3044 21.0826C23.0912 21.6938 23.9097 22.2728 24.7584 22.8153C24.7871 22.8343 24.8145 22.8518 24.8432 22.8708C26.1724 23.7262 27.0541 25.2337 27.0541 26.9502Z" fill="#4CC94C"/>
<path d="M44.065 -2.69525e-06C44.4664 -2.69525e-06 44.7267 0.425483 44.5541 0.793944C40.3639 9.75107 33.8147 17.5896 25.3567 23.254C24.1341 24.0757 22.8711 24.8507 21.5693 25.5759C21.5636 25.5774 21.5607 25.5817 21.555 25.5832C21.0817 25.8508 20.7638 26.3625 20.7638 26.9518C20.7638 26.9796 20.7638 27.0059 20.7652 27.0322C20.7983 29.0909 22.0987 30.8367 23.9082 31.4961C23.4077 31.6804 22.8668 31.7798 22.3029 31.7798C19.8936 31.7798 17.9042 29.9565 17.5964 27.5937C17.5676 27.3831 17.5532 27.1682 17.5532 26.9503C17.5532 25.2338 18.435 23.7263 19.7627 22.8695C19.7914 22.8505 19.8188 22.8329 19.8475 22.8139C27.8021 17.73 33.097 9.52297 34.8432 0.447415C34.8936 0.187152 35.1151 -0.00146484 35.3754 -0.00146484L44.065 -2.69525e-06Z" fill="#F9F649"/>
<path d="M35.1424 26.7793C35.2316 33.8429 29.6821 39.7617 22.7373 39.9927C15.4502 40.2354 9.46777 34.3035 9.46777 26.9503H14.3455C14.3455 31.5254 18.0797 35.2115 22.618 35.0345C26.7074 34.8752 30.0518 31.5166 30.2546 27.3627C30.3999 24.4003 28.9758 21.7655 26.7563 20.242C26.7549 20.2405 26.7506 20.2376 26.7491 20.2361C24.1787 18.4801 21.9174 16.4112 19.9856 14.1141C16.6815 10.1883 14.3383 5.58687 13.0567 0.698907C12.9646 0.346529 13.2221 0 13.5817 0H20.2316C20.5164 0 20.7509 0.225171 20.7739 0.514676C21.2673 6.69225 24.3959 12.5569 29.6951 16.2781C29.7094 16.2869 29.7238 16.2986 29.7382 16.3088C32.3346 18.1847 34.2146 21.0213 34.8792 24.3082C35.0417 25.1066 35.1309 25.9327 35.1424 26.7793Z" fill="#2984BD"/>
<path d="M24.744 39.7646C23.8148 39.9459 22.851 40.0263 21.8643 39.9927C14.918 39.7544 9.37288 33.8327 9.46926 26.7676C9.48076 25.9254 9.56995 25.1036 9.73249 24.3082C10.397 21.0213 12.2771 18.1862 14.8735 16.3088C14.8878 16.2971 14.9022 16.2869 14.9166 16.2781C20.2158 12.5569 23.3444 6.69225 23.8378 0.514676C23.8608 0.225171 24.0938 0 24.3786 0H31.0285C31.3867 0 31.6456 0.346529 31.5536 0.698907C30.2734 5.58687 27.9287 10.1883 24.6261 14.1141C22.6928 16.4126 20.433 18.4801 17.8625 20.2361C17.8611 20.2376 17.8568 20.2405 17.8553 20.242C15.7394 21.6954 14.347 24.1547 14.347 26.9489V26.9503H14.3456C14.3441 33.3107 18.8191 38.608 24.744 39.7646Z" fill="#50ADE8"/>
<path d="M22.3044 21.0815C21.5161 21.6927 20.6977 22.2717 19.8476 22.8141C19.8188 22.8332 19.7915 22.8507 19.7627 22.8697C19.5829 22.9852 19.4117 23.1124 19.2506 23.2528C10.794 17.5899 4.24341 9.75131 0.0546833 0.794191C-0.117929 0.425729 0.142428 0.000244141 0.543751 0.000244141H9.2319C9.49226 0.000244141 9.71522 0.188861 9.76413 0.449124C11.3234 8.55527 15.7149 15.9698 22.3044 21.0815Z" fill="#4CC94C"/>
</g>
<defs>
<clipPath id="clip0_24_3809">
<rect width="110.476" height="40" fill="white"/>
</clipPath>
</defs>
</svg>
