<?xml version="1.0" encoding="UTF-8"?>
<svg width="107px" height="42px" viewBox="0 0 107 42" version="1.1" xmlns="http://www.w3.org/2000/svg" xmlns:xlink="http://www.w3.org/1999/xlink">
    <title>AEBD2778-D51F-459B-9E4C-C89ECA5158AB</title>
    <g id="TCO22-Web" stroke="none" stroke-width="1" fill="none" fill-rule="evenodd">
        <g id="01_Homepage_Final" transform="translate(-656.000000, -14.000000)" fill-rule="nonzero">
            <g id="TCO22-Logo" transform="translate(656.000000, 14.000000)">
                <path d="M104.82114,31.174938 L98.0010919,31.174938 C103.969535,28.1662531 107,24.6191067 107,20.5099256 C107,16.1799007 103.376174,13 97.7644682,13 C95.4438742,13 93.5016379,13.4652605 91.9149378,14.3945409 L89.4514086,22.7853598 L94.5898668,22.7853598 C94.7316008,21.292804 95.5375628,20.5099256 96.6029701,20.5099256 C97.5734877,20.5099256 98.1428259,21.0967742 98.1428259,22.0756824 C98.1428259,23.91067 94.3063988,27.4081886 86.6335444,32.398263 L85,38 L102.808037,38 L104.82114,31.174938 Z" id="Path" fill="#FFFFFF"></path>
                <path d="M84.82114,31.174938 L78.0010919,31.174938 C83.9695348,28.1662531 87,24.6191067 87,20.5099256 C87,16.1799007 83.3761738,13 77.7644682,13 C75.4438742,13 73.5016379,13.4652605 71.9149378,14.3945409 L69.4514086,22.7853598 L74.5898668,22.7853598 C74.7316008,21.292804 75.5375628,20.5099256 76.6029701,20.5099256 C77.5734877,20.5099256 78.1428259,21.0967742 78.1428259,22.0756824 C78.1428259,23.91067 74.3063988,27.4081886 66.6335444,32.398263 L65,38 L82.8092378,38 L84.82114,31.174938 Z" id="Path" fill="#FFFFFF"></path>
                <path d="M62.5027219,42 C62.4556465,42 62.4073641,42 62.3602888,41.9756232 C62.0983568,41.9037115 61.9317825,41.6148459 62.0271402,41.3271992 L73.9975552,1.36380553 C74.0687718,1.0993168 74.354845,0.931116598 74.6397112,1.02740512 C74.9016432,1.0993168 75.0682175,1.38818237 74.9728598,1.6758291 L63.0024448,41.6392227 C62.9300212,41.8561766 62.7163715,42 62.5027219,42 Z" id="Path" fill="#ABCF37"></path>
                <path d="M54.1771152,9.87793296 C53.5489297,9.80641643 53.2979103,9.68641411 53.3730887,9.30458855 C53.4992355,8.77851778 54.4536188,7.20151762 55.1060143,6.22210476 C56.3114169,4.57358807 57.391947,2.87658559 59,1.17958311 C58.6228338,1.20382601 58.2469419,1.13230947 57.743629,1.0595808 C55.9852192,0.820788304 55.3825178,1.29837329 54.4268603,2.51779078 C52.9449541,4.40631211 51.1100917,8.44517801 49,10.1421805 C49,10.1421805 49.2765036,9.95066164 51.8389399,10.6682513 C53.648318,11.194322 54.8537207,11.0500768 54.9543833,10.5482489 C55.0321101,10.188242 54.7556065,9.9252066 54.1771152,9.87793296 Z" id="Path" fill="#FBED21"></path>
                <path d="M75,1.90670974 C75,1.90670974 73.3769915,8.40069175 72.1060326,11.5760843 C72.1060326,11.5760843 70.9293514,13.1989831 63.165165,10.0939958 C56.2244167,7.34103427 55.1646876,8.91739411 55,9.17634194 C55,9.17634194 57.3999045,5.12983459 60.8356704,1.22413758 C61.964616,-0.0467354179 62.5768244,-0.799712752 68.8361477,1.38881408 C70.7181216,2.07138624 73.9175965,2.18952373 75,1.90670974 Z" id="Path" fill="#ABCF37"></path>
                <g id="Group" transform="translate(0.000000, 13.000000)">
                    <path d="M35.2132264,24.2000573 C33.718383,24.7409141 32.2467818,25 30.7507151,25 C27.7120973,25 24.9866381,24.035293 22.864254,22.2455705 C20.5008845,20.2445198 19.1503877,17.1844405 19.1503877,13.8413964 C19.1503877,10.3109031 20.2843646,7.17918716 22.5033875,4.6611586 C25.1077424,1.69540093 28.9194708,0 33.3562933,0 C35.671955,0 37.7221658,0.47041406 39.5790989,1.3658723 L38.0842555,9.32231721 C36.4206,8.38029514 34.85236,7.8860022 33.2364122,7.8860022 C30.1733288,7.8860022 27.9787715,10.0279383 27.9787715,12.971011 C27.9787715,15.5129185 29.642427,17.067434 32.2480051,17.067434 C33.6229675,17.067434 35.3110885,16.573141 36.8793285,15.608434 L35.2132264,24.2000573 Z" id="Path" fill="#34AB49"></path>
                    <g transform="translate(38.638400, 0.023879)">
                        <path d="M3.71386631,22.12737 C1.39820461,20.1740771 0.0232422463,17.1366827 0.0232422463,13.8175176 C0.0232422463,10.2631453 1.13275369,7.20306605 3.35177657,4.68384355 C5.93288919,1.74077081 9.76785983,0.0465638283 14.1092668,0.0465638283 C21.5137572,0.0465638283 26.3616004,4.65996466 26.3616004,11.1335307 C26.3616004,14.6413391 25.252089,17.79574 23.0330661,20.2672047 C20.3797802,23.2807202 16.6659139,24.9044845 12.2523336,24.9044845 C8.73052168,24.9295573 5.93288919,23.9875352 3.71386631,22.12737 Z M8.73052168,12.9232533 C8.73052168,15.4185969 10.2987617,17.06624 12.7587699,17.06624 C15.5086947,17.06624 17.5821477,14.7595396 17.5821477,11.9346674 C17.5821477,9.55752424 15.8450956,7.93256603 13.5538994,7.93256603 C10.7807325,7.93256603 8.73052168,10.1222599 8.73052168,12.9232533 Z" id="Shape" fill="#ABCF37"></path>
                        <path d="M11.0706489,16.7367114 C9.62351325,16.124218 8.77945273,14.7595396 8.77945273,12.9232533 C8.77945273,11.3460528 9.43023562,9.95749558 10.4675738,9.0393524 C10.8529058,5.93151535 11.8425361,2.66010793 13.3141373,0 C9.28588904,0.211328144 5.76530036,1.86016524 3.35299985,4.63727972 C1.13397696,7.17918716 0,10.2631453 0,13.8175176 C0,17.1366827 1.39942788,20.2206409 3.71386631,22.1739338 C5.93288919,24.034099 8.7549872,24.9749272 12.2755759,24.9749272 C14.0848013,24.9749272 15.7729223,24.6919624 17.339939,24.1749845 C14.4945988,22.7637423 12.2034026,20.0797555 11.0706489,16.7367114 Z" id="Path" fill="#FBED21"></path>
                    </g>
                    <path d="M20.5008845,1.67152204 L20.5975233,1.17722909 L1.42267013,1.17722909 L0.0244655224,8.40417403 L5.23439852,8.40417403 L2.09914182,25 L11.0461834,25 L14.1814401,8.40417403 L18.8360057,8.40417403 C19.1259222,6.07359473 19.7045318,3.83733703 20.5008845,1.67152204 Z" id="Path" fill="#2C95D7"></path>
                    <path d="M9.98560298,25 C8.77945273,21.0922203 8.12866983,16.9492335 8.12866983,12.6653613 C8.12866983,8.68713883 8.68281391,4.82592292 9.72015206,1.17722909 L1.39942788,1.17722909 L0,8.40417403 L5.209933,8.40417403 L2.0746763,25 L9.98560298,25 Z" id="Path" fill="#50ADE8"></path>
                    <path d="M27.4466463,12.028989 C27.4466463,7.72123788 28.6038656,3.69525765 30.6540763,0.211328144 C27.3744731,0.752184918 24.5279095,2.30670042 22.4776987,4.65996466 C20.2586759,7.2018721 19.1246989,10.333588 19.1246989,13.8402025 C19.1246989,17.1593677 20.4996612,20.2433259 22.8385652,22.2443765 C24.9609493,24.0329051 27.6864085,24.9988061 30.7250263,24.9988061 C30.918304,24.9988061 31.1348238,24.9988061 31.3281015,24.9749272 C28.893782,21.2569846 27.4466463,16.8083481 27.4466463,12.028989 Z" id="Path" fill="#58B847"></path>
                </g>
            </g>
        </g>
    </g>
</svg>