<?xml version="1.0" encoding="UTF-8"?>
<svg width="52px" height="44px" viewBox="0 0 52 44" version="1.1" xmlns="http://www.w3.org/2000/svg" xmlns:xlink="http://www.w3.org/1999/xlink">
    <title>D38F565A-594D-4F70-B1E9-A517BCCABCAC</title>
    <g id="TCO21" stroke="none" stroke-width="1" fill="none" fill-rule="evenodd">
        <g id="01-Home" transform="translate(-81.000000, -19.000000)" fill-rule="nonzero">
            <g id="TCO21-Logo" transform="translate(81.000000, 19.000000)">
                <g id="Group" transform="translate(0.000000, 15.393939)" fill="#FFFFFF">
                    <polygon id="Path" points="2.73333333 4.16363636 0.0363636364 4.16363636 0.757575758 0.339393939 10.6606061 0.339393939 9.95757576 4.16363636 7.34545455 4.16363636 5.72727273 12.9393939 1.10909091 12.9393939"></polygon>
                    <path d="M17.3575758,12.8484848 C16.5818182,13.1333333 15.8242424,13.2727273 15.0484848,13.2727273 C13.4787879,13.2727273 12.0727273,12.7636364 10.9757576,11.8121212 C9.75757576,10.7575758 9.05454545,9.13333333 9.05454545,7.36969697 C9.05454545,5.5030303 9.63636364,3.84242424 10.7818182,2.5030303 C12.1212121,0.933333333 14.0969697,0.0363636364 16.3878788,0.0363636364 C17.5878788,0.0363636364 18.6424242,0.284848485 19.5939394,0.757575758 L18.8181818,4.96969697 C17.9515152,4.47878788 17.1454545,4.21212121 16.3151515,4.21212121 C14.7272727,4.21212121 13.6,5.33939394 13.6,6.90909091 C13.6,8.24848485 14.4606061,9.07878788 15.8,9.07878788 C16.5030303,9.07878788 17.3878788,8.81212121 18.1939394,8.3030303 L17.3575758,12.8484848 Z" id="Path"></path>
                    <path d="M20.8969697,11.7939394 C19.6969697,10.7515152 18.9757576,9.13333333 18.9757576,7.36969697 C18.9757576,5.48484848 19.5575758,3.84242424 20.7030303,2.5030303 C22.0424242,0.933333333 24.0363636,0.0363636364 26.2909091,0.0363636364 C30.1333333,0.0363636364 32.6545455,2.48484848 32.6545455,5.93939394 C32.6545455,7.80606061 32.0727273,9.47878788 30.9272727,10.8060606 C29.5515152,12.4121212 27.6121212,13.2727273 25.3212121,13.2727273 C23.5090909,13.2727273 22.0424242,12.7818182 20.8969697,11.7939394 M23.5090909,6.89090909 C23.5090909,8.21212121 24.3212121,9.09090909 25.6060606,9.09090909 C27.0363636,9.09090909 28.1090909,7.85454545 28.1090909,6.35757576 C28.1090909,5.09090909 27.2121212,4.22424242 26.0121212,4.22424242 C24.5636364,4.23030303 23.5090909,5.39393939 23.5090909,6.89090909" id="Shape"></path>
                    <path d="M32.6,10.4363636 C37.0060606,7.7030303 39.2060606,5.8 39.2060606,4.83030303 C39.2060606,4.33939394 38.9090909,4.03636364 38.3939394,4.03636364 C37.830303,4.03636364 37.4060606,4.44242424 37.3393939,5.2 L33.430303,5.2 C33.8909091,1.9030303 35.7757576,0.212121212 39,0.212121212 C41.9454545,0.212121212 43.8484848,1.83636364 43.8484848,4.03636364 C43.8484848,6.13333333 42.2606061,7.93333333 39.1272727,9.46666667 L43.1454545,9.46666667 L42.4848485,12.9393939 L32.1393939,12.9393939 L32.6,10.4363636 Z" id="Path"></path>
                    <polygon id="Path" points="46.2060606 4.00606061 44.7090909 4.00606061 45.3575758 0.460606061 51.1757576 0.460606061 48.8666667 12.9393939 44.5454545 12.9393939"></polygon>
                </g>
                <g id="Group">
                    <path d="M10.0848485,6.54545455 C8.41212121,5.19393939 7.06666667,4.64848485 5.35757576,4.5030303 C2.99393939,4.2969697 1.31515152,5.46666667 0.454545455,6.11515152 C2.52727273,5.93333333 3.83636364,6.15151515 6.70909091,9.08484848 C5.26060606,9.18181818 4.64242424,10 4.64242424,10 C6.07878788,10.0424242 7.47878788,10.2181818 8.92121212,11.4848485 C12.5515152,14.6909091 16.3030303,14.6060606 19.0606061,12.969697 C15.0363636,12.2909091 12.3939394,8.41818182 10.0848485,6.54545455 Z" id="Path" fill="#F9AF18"></path>
                    <path d="M33.6121212,5.13333333 C33.0909091,8.26666667 30.1333333,10.3333333 26.5393939,9.7030303 C21.8848485,8.89090909 17.3333333,1.18181818 10.6606061,0.139393939 C3.06060606,-1.04848485 0.0363636364,5.82424242 0.0363636364,5.82424242 C0.0363636364,5.82424242 2.44242424,3.16969697 6.60606061,3.70909091 C8.14545455,3.90909091 10.1757576,4.51515152 12.0787879,6.23636364 C18.6,12.1515152 20.7878788,13.5333333 24.5272727,13.9939394 C30.830303,14.769697 35.5272727,9.27878788 33.6121212,5.13333333 Z" id="Path" fill="#E96841"></path>
                    <path d="M10.0848485,6.54545455 C8.41212121,5.19393939 7.06666667,4.64848485 5.35757576,4.5030303 C2.99393939,4.2969697 1.31515152,5.46666667 0.454545455,6.11515152 C3.13939394,4.85454545 5.83030303,4.95757576 8.62424242,7.93333333 C12.7939394,12.3636364 15.1030303,13.8121212 19.0606061,12.9636364 C15.0363636,12.2909091 12.3939394,8.41818182 10.0848485,6.54545455 Z" id="Path" fill="#FFD14E"></path>
                    <path d="M8.44848485,1.92121212 C11.7212121,2.20606061 14.0787879,4.26666667 15.9272727,6.03636364 C23.8060606,13.5878788 27.4424242,13.4 31.5030303,12.0181818 C33.6181818,10.2484848 34.6181818,7.63030303 33.7090909,5.36363636 C33.6787879,5.29090909 33.6484848,5.21212121 33.6121212,5.13939394 C33.0909091,8.27272727 30.1333333,10.3393939 26.5393939,9.70909091 C21.8848485,8.8969697 17.3333333,1.18787879 10.6606061,0.145454545 C3.06060606,-1.04242424 0.0363636364,5.83030303 0.0363636364,5.83030303 C0.0363636364,5.83030303 2.82424242,1.43030303 8.44848485,1.92121212 Z" id="Path" fill="#F69652"></path>
                </g>
                <g id="Group" transform="translate(17.151515, 29.878788)">
                    <path d="M23.9757576,7.57575758 C25.6484848,8.92727273 26.9939394,9.47272727 28.7030303,9.61818182 C31.0666667,9.82424242 32.7454545,8.65454545 33.6060606,8.00606061 C31.5333333,8.18787879 30.2242424,7.96969697 27.3515152,5.03636364 C28.8,4.93939394 29.4181818,4.12121212 29.4181818,4.12121212 C27.9818182,4.07878788 26.5818182,3.9030303 25.1393939,2.63636364 C21.5030303,-0.56969697 17.7575758,-0.484848485 15,1.15757576 C19.0181818,1.83030303 21.6606061,5.7030303 23.9757576,7.57575758 Z" id="Path" fill="#35C4F2"></path>
                    <path d="M0.448484848,8.98787879 C0.96969697,5.85454545 3.92727273,3.78787879 7.52121212,4.41818182 C12.1757576,5.23030303 16.7272727,12.9393939 23.4,13.9818182 C31,15.169697 34.0242424,8.2969697 34.0242424,8.2969697 C34.0242424,8.2969697 31.6181818,10.9515152 27.4545455,10.4121212 C25.9151515,10.2121212 23.8848485,9.60606061 21.9818182,7.88484848 C15.4606061,1.96969697 13.2727273,0.587878788 9.53333333,0.127272727 C3.22424242,-0.648484848 -1.47272727,4.84242424 0.448484848,8.98787879 Z" id="Path" fill="#A0CC3A"></path>
                    <path d="M23.9757576,7.57575758 C25.6484848,8.92727273 26.9939394,9.47272727 28.7030303,9.61818182 C31.0666667,9.82424242 32.7454545,8.65454545 33.6060606,8.00606061 C30.9212121,9.26666667 28.230303,9.16363636 25.4363636,6.18787879 C21.2666667,1.75757576 18.9575758,0.309090909 15,1.15757576 C19.0181818,1.83030303 21.6606061,5.7030303 23.9757576,7.57575758 Z" id="Path" fill="#24A3DC"></path>
                    <path d="M25.6121212,12.2 C22.3393939,11.9151515 19.9818182,9.85454545 18.1333333,8.08484848 C10.2545455,0.533333333 6.61818182,0.721212121 2.55757576,2.1030303 C0.442424242,3.87272727 -0.557575758,6.49090909 0.351515152,8.75757576 C0.381818182,8.83030303 0.412121212,8.90909091 0.448484848,8.98181818 C0.96969697,5.84848485 3.92727273,3.78181818 7.52121212,4.41212121 C12.1757576,5.22424242 16.7272727,12.9333333 23.4,13.9757576 C31,15.1636364 34.0242424,8.29090909 34.0242424,8.29090909 C34.0242424,8.29090909 31.230303,12.6909091 25.6121212,12.2 Z" id="Path" fill="#5CB947"></path>
                </g>
            </g>
        </g>
    </g>
</svg>